{"title":"The.Broken.Circle.Breakdown.2012.BRRip.XviD.AC3.HORiZON-ArtSubs","uid":10471985,"size":2039140514,"categoryP":"video","categoryS":"movies","magnet":"?xt=urn:btih:bd3c1ee5a39339059a587a3a466609561c52c0be&amp;dn=The.Broken.Circle.Breakdown.2012.BRRip.XviD.AC3.HORiZON-ArtSubs&amp;tr=udp%3A%2F%2Ftracker.openbittorrent.com%3A80&amp;tr=udp%3A%2F%2Fopen.demonii.com%3A1337&amp;tr=udp%3A%2F%2Ftracker.coppersurfer.tk%3A6969&amp;tr=udp%3A%2F%2Fexodus.desync.com%3A6969","seeders":4,"leechers":2,"uploader":"lletaif","files":5,"time":1404263004,"description":"Title:\nThe Broken Circle Breakdown\n\n\nCountry:\nBelgium, 2012\n\n\nLanguage:\nFlemish\n\n\nSubtitle:\nEnglish, Portuguese, French, Spanish\n\n\nIMDB: &lt;a href=&quot;\nhttp://www.imdb.com/title/tt2024519/?ref_=fn_tt_tt_1&quot; rel=&quot;nofollow&quot; target=&quot;_NEW&quot;&gt;\nhttp://www.imdb.com/title/tt2024519/?ref_=fn_tt_tt_1&lt;/a&gt;\n\n\nTrivia:\nAcademy Awards Nominies in Best Foreign Language Film - Oscar 2014\n\n\nSynopsis:\nElise and Didier fall in love at first sight, in spite of their differences. He talks, she listens. He's a romantic atheist, she's a religious realist. When their daughter becomes seriously ill, their love is put on trial.\n\n\nMedia Info:\n\nGeneral\nComplete name                            : The.Broken.Circle.Breakdown.2012.BRRip.XviD.AC3.HORiZON-ArtSubs.avi\nFormat                                   : AVI\nFormat/Info                              : Audio Video Interleave\nFormat profile                           : OpenDML\nFile size                                : 1.90 GiB\nDuration                                 : 1h 51mn\nOverall bit rate                         : 2 435 Kbps\nWriting application                      : Lavf52.94.0\n\nVideo\nID                                       : 0\nFormat                                   : MPEG-4 Visual\nFormat profile                           : Simple@L3\nFormat settings, BVOP                    : No\nFormat settings, QPel                    : No\nFormat settings, GMC                     : No warppoints\nFormat settings, Matrix                  : Default (H.263)\nCodec ID                                 : XVID\nCodec ID/Hint                            : XviD\nDuration                                 : 1h 51mn\nBit rate                                 : 2 200 Kbps\nWidth                                    : 1 280 pixels\nHeight                                   : 544 pixels\nDisplay aspect ratio                     : 2.35:1\nFrame rate                               : 24.000 fps\nColor space                              : YUV\nChroma subsampling                       : 4:2:0\nBit depth                                : 8 bits\nScan type                                : Progressive\nCompression mode                         : Lossy\nBits/(Pixel*Frame)                       : 0.132\nStream size                              : 1.72 GiB (90%)\nWriting library                          : XviD 1.2.1 (UTC 2008-12-04)\n\nAudio\nID                                       : 1\nFormat                                   : AC-3\nFormat/Info                              : Audio Coding 3\nMode extension                           : CM (complete main)\nFormat settings, Endianness              : Big\nCodec ID                                 : 2000\nDuration                                 : 1h 51mn\nBit rate mode                            : Constant\nBit rate                                 : 224 Kbps\nChannel(s)                               : 2 channels\nChannel positions                        : Front: LR\nSampling rate                            : 48.0 KHz\nBit depth                                : 16 bits\nCompression mode                         : Lossy\nStream size                              : 179 MiB (9%)\nAlignment                                : Aligned on interleaves\nInterleave, duration                     : 32 ms (0.77 video frame)\nInterleave, preload duration             : 32 ms\n\n","torrent":{"xt":"urn:btih:bd3c1ee5a39339059a587a3a466609561c52c0be","amp;dn":"The.Broken.Circle.Breakdown.2012.BRRip.XviD.AC3.HORiZON-ArtSubs","amp;tr":["udp%3A%2F%2Ftracker.openbittorrent.com%3A80","udp%3A%2F%2Fopen.demonii.com%3A1337","udp%3A%2F%2Ftracker.coppersurfer.tk%3A6969","udp%3A%2F%2Fexodus.desync.com%3A6969"],"infoHash":"bd3c1ee5a39339059a587a3a466609561c52c0be","infoHashBuffer":{"type":"Buffer","data":[189,60,30,229,163,147,57,5,154,88,122,58,70,102,9,86,28,82,192,190]},"announce":[],"urlList":[]}}